<svg xmlns="http://www.w3.org/2000/svg" viewBox="0 0 260 48" fill="none">
  <defs>
    <linearGradient id="ai_body" x1="14" y1="15" x2="34" y2="36" gradientUnits="userSpaceOnUse">
      <stop offset="0%" stop-color="#ffffff" />
      <stop offset="100%" stop-color="#e2e8f0" />
    </linearGradient>
    <linearGradient id="ai_cyan" x1="12" y1="10" x2="36" y2="14" gradientUnits="userSpaceOnUse">
      <stop offset="0%" stop-color="#38bdf8" />
      <stop offset="100%" stop-color="#0284c7" />
    </linearGradient>
  </defs>

  <!-- Icon Symbol (48x48) -->
  <g id="icon">
    <rect width="48" height="48" rx="12" fill="#0f172a" stroke="#334155" stroke-width="1.5" />
    <path d="M12 12C12 10.8954 12.8954 10 14 10H34C35.1046 10 36 10.8954 36 12C36 13.1046 35.1046 14 34 14H14C12.8954 14 12 13.1046 12 12Z" fill="url(#ai_cyan)" />
    <path d="M14 36L22.5 15H25.5L34 36H29.5L27.5 31H20.5L18.5 36H14Z" fill="url(#ai_body)" />
    <polygon points="24,19 22.2,27 25.8,27" fill="#0f172a" />
    <rect x="18" y="28.5" width="12" height="2.5" rx="1.25" fill="#38bdf8" />
  </g>

  <!-- Brand Typography -->
  <g id="wordmark" transform="translate(62, 0)">
    <!-- Primary Title -->
    <text x="0" y="27" font-family="-apple-system, BlinkMacSystemFont, 'Segoe UI', Roboto, Helvetica, Arial, sans-serif" font-size="21" font-weight="800" letter-spacing="-0.03em">
      <tspan fill="#2563eb">AI </tspan>
      <tspan fill="#0f172a">Text Utility</tspan>
    </text>
    <!-- Subtitle Pill -->
    <text x="0" y="40" font-family="-apple-system, BlinkMacSystemFont, 'Segoe UI', Roboto, Helvetica, Arial, sans-serif" font-size="9.5" font-weight="600" letter-spacing="0.04em" fill="#64748b" text-transform="uppercase">
      Fast, Private &amp; Client-Side
    </text>
  </g>
</svg>
